<svg width="32" height="32" viewBox="0 0 32 32" fill="none" xmlns="http://www.w3.org/2000/svg">
  <!-- Fundo circular -->
  <circle cx="16" cy="16" r="15" fill="#0ea5e9" stroke="#0369a1" stroke-width="2"/>
  
  <!-- Casa -->
  <path d="M8 20V12L16 6L24 12V20H8Z" fill="#fbbf24" stroke="#f59e0b" stroke-width="1.5"/>
  
  <!-- Telhado -->
  <path d="M6 12L16 4L26 12L24 10L16 6L8 10L6 12Z" fill="#dc2626" stroke="#b91c1c" stroke-width="1.5"/>
  
  <!-- Porta -->
  <rect x="13" y="16" width="6" height="4" fill="#8b5cf6" stroke="#7c3aed" stroke-width="1"/>
  
  <!-- Janela -->
  <rect x="10" y="14" width="3" height="3" fill="#60a5fa" stroke="#3b82f6" stroke-width="0.5"/>
  <rect x="19" y="14" width="3" height="3" fill="#60a5fa" stroke="#3b82f6" stroke-width="0.5"/>
  
  <!-- Localização (pino) -->
  <circle cx="16" cy="26" r="2" fill="#ef4444" stroke="#dc2626" stroke-width="1"/>
  <path d="M16 24V22" stroke="#dc2626" stroke-width="1.5" stroke-linecap="round"/>
  
  <!-- Estrela -->
  <path d="M22 8L23.5 9.5L25 8L23.5 6.5L22 8Z" fill="#fbbf24" stroke="#f59e0b" stroke-width="0.5"/>
  <path d="M9 8L10.5 9.5L12 8L10.5 6.5L9 8Z" fill="#fbbf24" stroke="#f59e0b" stroke-width="0.5"/>
</svg>
